<svg id="Layer_1" xmlns="http://www.w3.org/2000/svg" width="300" height="300" viewBox="0 0 300 300"><style>.st0{fill:none;stroke:#000;stroke-width:7.5;stroke-linecap:round;stroke-linejoin:round;stroke-miterlimit:10}</style><defs><style>#main1{stroke-dasharray:1013;stroke-dashoffset:0}#main2{stroke-dasharray:344;stroke-dashoffset:344}#leg1{stroke-dasharray:78;stroke-dashoffset:78}#leg2{stroke-dasharray:98;stroke-dashoffset:98}#stripe1,#stripe2,#stripe3{stroke-dasharray:135;stroke-dashoffset:135}</style></defs><path id="leg1" class="st0" d="M49.938 219.734l19.395-9.651v-56.239"/><path id="leg2" class="st0" d="M126.516 258.047V182.5l-19.375-9.656"/><path id="stripe1" class="st0" d="M174.5 65.833L54.511 126.148"/><path id="stripe2" class="st0" d="M102.833 126.148l119.792-59.992"/><path id="stripe3" class="st0" d="M222.625 90l-119.792 60.508"/><path id="main2" class="st0" d="M30.565 114.076l95.81 48.299 125-62.75v96.687"/><path id="main1" class="box" d="M30.547 210.062l.018-95.986L174.5 42.094l48.125 24.062 47.844 23.922v95.969l-19.375 10.265-19.391-10.25v-56.281l-85.781 43.063v75.484l-19.406 9.719-19.375-9.703v-75.5l-37.797-19-19.391-9.782-.015 75.672z"/></svg>